<svg viewBox="0 0 24 24" fill="none">
  <path d="M7.715 3.1Q8.513 3.1 9.273 3.342Q10.034 3.584 10.685 4.045L11.187 4.4Q11.552 4.658 12 4.658Q12.448 4.658 12.813 4.4L13.315 4.045Q13.966 3.584 14.727 3.342Q15.487 3.1 16.285 3.1H16.897Q17.793 3.1 18.392 3.312Q20.686 4.126 21.817 6.99Q22.981 9.937 22.894 15.118Q22.87 16.516 22.49 17.515Q21.954 18.923 20.754 19.496Q19.91 19.9 18.973 19.9Q17.84 19.9 16.949 19.316Q16.627 19.105 16.268 18.789Q16.059 18.605 15.689 18.246L15.562 18.125Q15.218 17.793 15 17.615Q14.722 17.388 14.474 17.26Q13.781 16.9 12.999 16.9H11.001Q10.219 16.9 9.526 17.26Q9.278 17.388 9 17.615Q8.782 17.793 8.438 18.124L8.312 18.246Q7.941 18.605 7.732 18.789Q7.373 19.105 7.051 19.316Q6.16 19.9 5.027 19.9Q4.09 19.9 3.246 19.496Q2.046 18.923 1.51 17.515Q1.13 16.516 1.106 15.118Q1.019 9.937 2.183 6.99Q3.314 4.126 5.608 3.312Q6.207 3.1 7.103 3.1ZM8.4 9.6V9Q8.4 8.627 8.136 8.364Q7.873 8.1 7.5 8.1Q7.127 8.1 6.864 8.364Q6.6 8.627 6.6 9V9.6H6Q5.627 9.6 5.364 9.864Q5.1 10.127 5.1 10.5Q5.1 10.873 5.364 11.136Q5.627 11.4 6 11.4H6.6V12Q6.6 12.373 6.864 12.636Q7.127 12.9 7.5 12.9Q7.873 12.9 8.136 12.636Q8.4 12.373 8.4 12V11.4H9Q9.373 11.4 9.636 11.136Q9.9 10.873 9.9 10.5Q9.9 10.127 9.636 9.864Q9.373 9.6 9 9.6ZM15.85 8.75C15.85 9.247 16.253 9.65 16.75 9.65C17.247 9.65 17.65 9.247 17.65 8.75C17.65 8.253 17.247 7.85 16.75 7.85C16.253 7.85 15.85 8.253 15.85 8.75ZM15.85 11.75C15.85 12.247 16.253 12.65 16.75 12.65C17.247 12.65 17.65 12.247 17.65 11.75C17.65 11.253 17.247 10.85 16.75 10.85C16.253 10.85 15.85 11.253 15.85 11.75ZM17.35 10.25C17.35 10.747 17.753 11.15 18.25 11.15C18.747 11.15 19.15 10.747 19.15 10.25C19.15 9.753 18.747 9.35 18.25 9.35C17.753 9.35 17.35 9.753 17.35 10.25ZM14.35 10.25C14.35 10.747 14.753 11.15 15.25 11.15C15.747 11.15 16.15 10.747 16.15 10.25C16.15 9.753 15.747 9.35 15.25 9.35C14.753 9.35 14.35 9.753 14.35 10.25Z" fill="currentColor" />
</svg>
