<svg viewBox="0 0 24 24" fill="none">
  <path d="M16.761 3.749C17.484 3.89 18.081 4.305 18.441 4.923L20.966 9.254Q21.76 10.615 21.882 12.184Q22 13.687 21.49 15.184Q20.986 16.665 19.946 17.912Q18.879 19.192 17.404 20.035Q15.931 20.877 14.28 21.151Q12.672 21.419 11.128 21.111Q9.568 20.8 8.315 19.95Q7.006 19.061 6.214 17.703L2.425 11.207Q2.146 10.727 2.104 10.184C2.026 9.18 2.624 8.123 3.564 7.585Q4.01 7.33 4.51 7.238L3.62 5.712C3.258 5.091 3.193 4.367 3.433 3.672C3.759 2.727 4.622 1.97 5.638 1.757C6.525 1.571 7.445 1.808 8.047 2.378Q8.401 1.934 8.9 1.648C9.838 1.112 11.054 1.129 11.887 1.694Q12.337 2 12.616 2.477L13.938 4.744Q14.272 4.353 14.725 4.094C15.345 3.74 16.079 3.616 16.761 3.749ZM9.606 22.367Q9.454 22.707 9.106 22.84Q8.757 22.974 8.417 22.822C6.507 21.969 4.998 20.647 4.014 18.96Q3.826 18.638 3.921 18.278Q4.016 17.917 4.339 17.729Q4.661 17.542 5.021 17.636Q5.381 17.731 5.569 18.053C6.362 19.413 7.584 20.479 9.151 21.178Q9.491 21.33 9.624 21.678Q9.758 22.026 9.606 22.367ZM13.378 6.763L15.103 9.721C15.202 9.865 15.177 10.026 15.033 10.129C14.296 10.748 13.767 11.573 13.543 12.46C13.299 13.423 13.428 14.391 13.914 15.225C14.081 15.511 14.448 15.607 14.734 15.44C15.021 15.274 15.117 14.906 14.95 14.62C14.595 14.011 14.533 13.253 14.776 12.521C15.028 11.763 15.583 11.106 16.345 10.67C16.635 10.505 16.734 10.135 16.566 9.847L14.882 6.959Q14.8 6.818 14.773 6.663C14.339 6.853 13.841 6.89 13.378 6.763ZM14.579 1.32Q16.073 0.895 17.538 1.279Q19.004 1.664 20.085 2.768Q20.346 3.034 20.342 3.407Q20.338 3.78 20.072 4.04Q19.805 4.301 19.432 4.297Q19.06 4.293 18.799 4.027Q18.067 3.279 17.081 3.02Q16.093 2.761 15.072 3.052Q14.713 3.154 14.387 2.972Q14.062 2.791 13.96 2.432Q13.858 2.074 14.039 1.748Q14.22 1.422 14.579 1.32ZM8.912 4.285C8.506 4.47 8.05 4.52 7.62 4.432L8.021 5.118L10.546 9.45C10.713 9.736 11.081 9.833 11.367 9.666C11.653 9.499 11.75 9.131 11.583 8.845L9.057 4.514Q8.987 4.394 8.957 4.263Q8.935 4.274 8.912 4.285ZM5.763 8.915Q5.896 9.02 5.984 9.17L7.668 12.057C7.835 12.343 8.202 12.44 8.488 12.273C8.775 12.106 8.871 11.739 8.704 11.453L6.543 7.746C6.426 8.212 6.148 8.628 5.763 8.915Z" fill="currentColor" />
</svg>
