<svg viewBox="0 0 24 24" fill="none">
  <path d="M19.977 7.475Q20.576 8.096 20.924 8.675C21.462 9.571 21.7 10.584 21.7 12Q21.7 14.198 21.68 15.105Q21.646 16.585 21.533 17.538Q21.396 18.677 21.102 19.484C20.657 20.7 19.853 21.597 18.755 22.105Q18.01 22.45 16.963 22.609Q16.1 22.739 14.768 22.777Q13.957 22.8 12 22.8Q10.043 22.8 9.232 22.777Q7.9 22.739 7.037 22.609Q5.99 22.45 5.245 22.105C4.147 21.597 3.343 20.7 2.898 19.484Q2.604 18.677 2.467 17.538Q2.354 16.585 2.32 15.105Q2.3 14.198 2.3 12Q2.3 9.802 2.32 8.895Q2.354 7.415 2.467 6.462Q2.604 5.323 2.898 4.516C3.34 3.308 4.15 2.415 5.183 1.905Q5.892 1.554 6.859 1.393Q7.653 1.261 8.858 1.223Q9.587 1.2 11.34 1.2C12.146 1.2 12.766 1.35 13.383 1.69Q13.79 1.914 14.275 2.302Q14.629 2.585 15.241 3.136L18.764 6.328Q19.613 7.099 19.977 7.475ZM10.036 3.004Q9.312 3.01 8.915 3.022Q8.555 3.034 8.241 3.054Q8.24 3.072 8.24 3.09V10.446Q7.99 10.454 7.855 10.472C7.088 10.576 6.614 11.056 6.512 11.815Q6.48 12.055 6.48 12.66V15.3Q6.48 15.905 6.512 16.145C6.616 16.912 7.096 17.386 7.855 17.488Q8.095 17.52 8.7 17.52H9.58Q10.185 17.52 10.425 17.488C11.192 17.384 11.666 16.904 11.768 16.145Q11.8 15.905 11.8 15.3V12.66Q11.8 12.055 11.768 11.815C11.664 11.048 11.184 10.574 10.425 10.472Q10.29 10.454 10.04 10.446V3.09Q10.04 3.046 10.036 3.004ZM15.931 9.11C14.857 9.083 14.421 8.999 14.161 8.739C13.901 8.479 13.817 8.043 13.79 6.969Q13.78 6.581 13.78 5.62V4.244Q13.389 3.899 13.151 3.708C12.669 3.323 12.347 3.142 11.98 3.06V5.62Q11.98 6.604 11.99 7.014Q12.008 7.701 12.069 8.154C12.181 8.989 12.439 9.563 12.888 10.012C13.337 10.461 13.911 10.719 14.746 10.831Q15.199 10.892 15.886 10.91Q16.296 10.92 17.28 10.92H19.83C19.754 10.399 19.611 9.984 19.381 9.603Q19.243 9.373 19.035 9.12H17.28Q16.319 9.12 15.931 9.11ZM8.28 15.3V12.66Q8.28 12.4 8.285 12.245Q8.44 12.24 8.7 12.24H9.58Q9.84 12.24 9.995 12.245Q10 12.4 10 12.66V15.3Q10 15.56 9.995 15.715Q9.84 15.72 9.58 15.72H8.7Q8.44 15.72 8.285 15.715Q8.28 15.56 8.28 15.3Z" fill="currentColor" />
</svg>
