<svg viewBox="0 0 24 24" fill="none">
  <path d="M18.274 11.693C17.932 12.41 17.47 13.059 16.914 13.614C15.657 14.872 13.919 15.65 12 15.65C10.081 15.65 8.343 14.872 7.086 13.614C6.53 13.059 6.068 12.409 5.725 11.692C5.628 11.487 5.539 11.276 5.462 11.063C5.195 10.326 5.05 9.53 5.05 8.7C5.05 7.87 5.195 7.074 5.462 6.336C5.539 6.124 5.628 5.913 5.725 5.708C6.068 4.991 6.53 4.341 7.086 3.786C7.641 3.23 8.291 2.768 9.008 2.425C9.213 2.328 9.424 2.239 9.637 2.162C10.37 1.897 11.16 1.752 11.983 1.75H12H12.017C12.841 1.752 13.631 1.897 14.364 2.162C15.325 2.511 16.195 3.063 16.926 3.797C17.476 4.35 17.934 4.995 18.274 5.707C18.372 5.912 18.461 6.124 18.538 6.338C18.802 7.067 18.947 7.853 18.95 8.672Q18.95 8.686 18.95 8.7V8.728C18.947 9.547 18.802 10.333 18.538 11.062C18.461 11.275 18.372 11.488 18.274 11.693ZM7.032 15.906Q7.762 16.41 8.594 16.762Q10.221 17.45 12 17.45Q13.779 17.45 15.406 16.762Q16.238 16.41 16.968 15.906L17.555 20.251C17.655 20.99 17.45 21.561 16.99 21.89C16.531 22.218 15.924 22.228 15.257 21.894L12.778 20.656C12.323 20.428 11.677 20.428 11.222 20.656L8.743 21.894C8.075 22.228 7.469 22.218 7.01 21.89C6.55 21.561 6.345 20.99 6.445 20.252L7.032 15.906Z" fill="currentColor" />
</svg>
